<svg width="40" height="40" viewBox="0 0 128 128" fill="none" xmlns="http://www.w3.org/2000/svg">
<g transform="translate(3.7535,6.3353) scale(0.897177)">
    <path d="M41.226 76.778a4.002 4.002 0 0 1-.47-1.29c.09.452.25.887.47 1.29zm.578.713c.222.22.472.411.749.548l18.88 10.565-18.88-10.565a2.899 2.899 0 0 1-.747-.548z" fill="#083042"/><path d="M64.342 101.967h-.14a8.301 8.301 0 0 1-4.014-1.016l-28.182-15.75c-1.663-.932-2.686-2.66-2.686-4.527V48.628c0-1.373.249-2.69.83-3.842L8.114 32.522c-.913 1.92-1.383 4.088-1.356 6.366v52.927a8.675 8.675 0 0 0 4.458 7.49l46.481 26.012c2.05 1.152 4.347 1.701 6.617 1.701v-.027c.055-3.32.028-16.628.028-25.023z" fill="#083042"/><path d="m86.46 50.6-.167-.246c-.138-.192-.275-.357-.413-.548.138.164.275.356.413.547a.973.973 0 0 1 .167.247zM63.262 37.76c.14 0 .251-.027.39-.027-.139.027-.278.027-.39.027z" fill="#3ddb85"/><path d="M30.122 44.757a7.214 7.214 0 0 1 2.825-3.072l26.52-15.503a8.065 8.065 0 0 1 8.03-.082l26.798 15.009a8.993 8.993 0 0 1 3.018 2.743L118.99 31.04a14.913 14.913 0 0 0-4.955-4.5L69.766 1.764a13.32 13.32 0 0 0-13.233.137L12.765 27.472a11.704 11.704 0 0 0-4.651 5.049l22.009 12.236z" fill="#3ddc84"/><path d="M62.157 37.983c.057-.028.114-.028.17-.056-.056.028-.113.028-.17.056zm-20.88 12.949c.056-.11.111-.22.168-.3-.057.109-.111.19-.168.3l-.082.246z" fill="#3ddb85"/><path d="M118.962 31.04 97.285 43.852c.83 1.207 1.329 2.633 1.355 4.089v30.51a7.881 7.881 0 0 1-3.93 6.914L68.188 100.87a8.07 8.07 0 0 1-3.849 1.097c.029 8.369.029 21.677-.027 24.997v.027a13.533 13.533 0 0 0 6.617-1.812l43.769-25.599c4.07-2.387 6.562-6.723 6.506-11.415V37.817c-.028-2.442-.858-4.774-2.242-6.777z" fill="#4285f4"/><path d="M86.963 75.187c-.028.056-.028.111-.056.168a.387.387 0 0 0 .056-.168zm-.278-24.227c-.057-.138-.14-.248-.223-.385.083.137.166.275.222.385zM66.807 88.576 84.58 78.178c.111-.054.195-.138.306-.192-.111.054-.195.138-.306.192l-17.773 10.4zM86.74 75.818c-.056.138-.139.275-.196.413.057-.165.112-.303.196-.413z" fill="#4285f4"/><path d="M41.198 51.178a5.508 5.508 0 0 0-.415 1.675c-.028.218-.028.438-.028.686v21.483c0 .164 0 .302.028.467.056.465.222.905.47 1.29.167.274.36.492.555.712.222.22.47.411.746.55l18.882 10.563a5.49 5.49 0 0 0 2.684.685h.195a5.155 5.155 0 0 0 2.492-.74L84.58 78.15c.111-.055.194-.138.305-.192.194-.137.388-.275.554-.44.26-.236.501-.492.719-.768.138-.192.277-.383.388-.576.082-.136.139-.274.193-.412.056-.135.14-.301.195-.465.027-.056.027-.111.055-.165a5.403 5.403 0 0 0 .249-1.647V53.044c0-.383-.056-.74-.138-1.096-.055-.248-.14-.468-.222-.688l-.166-.328c-.055-.138-.14-.247-.222-.385l-.166-.246c-.138-.193-.277-.357-.415-.549a5.607 5.607 0 0 0-1.606-1.29L66.337 38.394a6.145 6.145 0 0 0-.97-.44 5.86 5.86 0 0 0-1.385-.246h-.36c-.137 0-.248 0-.386.026a5.658 5.658 0 0 0-.942.165c-.055.027-.11.027-.166.056-.415.11-.803.301-1.191.52l-17.773 10.4a4.548 4.548 0 0 0-1.33 1.18c-.137.192-.276.384-.387.576-.055.11-.11.192-.166.302l-.083.246Z" fill="#d6f0ff"/><path d="M64.312 89.288h-.194a5.512 5.512 0 0 1-2.686-.684L42.552 78.04a3.737 3.737 0 0 1-.748-.549 3.31 3.31 0 0 1-.554-.714 3.998 3.998 0 0 1-.47-1.29c-.029-.163-.029-.301-.029-.465V53.537c0-.219 0-.465.029-.686.053-.575.192-1.14.415-1.674L36.1 48.078l-5.98-3.32c-.554 1.152-.83 2.468-.83 3.841v32.047a5.322 5.322 0 0 0 2.685 4.528l28.157 15.776a8.023 8.023 0 0 0 4.014 1.016h.14c0-4.089-.029-6.997-.029-6.997l.055-5.68z" fill="#083042"/><path d="M64.312 89.288h-.194a5.512 5.512 0 0 1-2.686-.684L42.552 78.04a3.737 3.737 0 0 1-.748-.549 3.31 3.31 0 0 1-.554-.714 3.998 3.998 0 0 1-.47-1.29c-.029-.163-.029-.301-.029-.465V53.537c0-.219 0-.465.029-.686.053-.575.192-1.14.415-1.674L36.1 48.078l-5.98-3.32c-.554 1.152-.83 2.468-.83 3.841v32.047a5.322 5.322 0 0 0 2.685 4.528l28.157 15.776a8.023 8.023 0 0 0 4.014 1.016h.14c0-4.089-.029-6.997-.029-6.997l.055-5.68z" fill="#041619"/><path d="m94.266 41.109-26.799-15.01a8.066 8.066 0 0 0-8.029.083l-26.52 15.504a7.049 7.049 0 0 0-2.826 3.073l6.01 3.32 5.093 3.099.082-.246c.056-.111.111-.22.166-.302.111-.192.25-.384.388-.576.36-.467.803-.85 1.33-1.18l17.772-10.4c.38-.213.777-.387 1.191-.52.056-.027.111-.027.166-.056.308-.084.623-.138.941-.164.138 0 .249-.028.388-.028h.36c.469.03.933.111 1.384.246.34.108.665.255.969.441l17.966 10.07a5.99 5.99 0 0 1 1.608 1.289c.137.164.277.357.414.548l.167.246 4.595-3.044 6.229-3.704c-.803-1.071-1.827-2.032-3.045-2.69z" fill="#3ddb85"/><path d="m94.266 41.109-26.799-15.01a8.066 8.066 0 0 0-8.029.083l-26.52 15.504a7.049 7.049 0 0 0-2.826 3.073l6.01 3.32 5.093 3.099.082-.246c.056-.111.111-.22.166-.302.111-.192.25-.384.388-.576.36-.467.803-.85 1.33-1.18l17.772-10.4c.38-.213.777-.387 1.191-.52.056-.027.111-.027.166-.056.308-.084.623-.138.941-.164.138 0 .249-.028.388-.028h.36c.469.03.933.111 1.384.246.34.108.665.255.969.441l17.966 10.07a5.99 5.99 0 0 1 1.608 1.289c.137.164.277.357.414.548l.167.246 4.595-3.044 6.229-3.704c-.803-1.071-1.827-2.032-3.045-2.69z" fill="#37bf6e"/><path d="M86.46 50.602c.083.136.139.246.221.384l.167.329a4.783 4.783 0 0 1 .36 1.783V73.54a5.414 5.414 0 0 1-.25 1.646c-.027.054-.027.11-.055.164a3.423 3.423 0 0 1-.193.468c-.057.135-.14.273-.195.41-.11.193-.249.384-.388.577a6.243 6.243 0 0 1-.719.767c-.166.165-.36.302-.554.44-.111.054-.193.137-.304.192L66.776 88.602a5.841 5.841 0 0 1-2.492.742v5.679s0 2.909.028 6.997a7.785 7.785 0 0 0 3.849-1.097l26.52-15.504c2.465-1.453 3.96-4.088 3.932-6.913V47.995c-.027-1.482-.525-2.882-1.355-4.089l-6.231 3.705z" fill="#4285f4"/><path d="M86.46 50.602c.083.136.139.246.221.384l.167.329a4.783 4.783 0 0 1 .36 1.783V73.54a5.414 5.414 0 0 1-.25 1.646c-.027.054-.027.11-.055.164a3.423 3.423 0 0 1-.193.468c-.057.135-.14.273-.195.41-.11.193-.249.384-.388.577a6.243 6.243 0 0 1-.719.767c-.166.165-.36.302-.554.44-.111.054-.193.137-.304.192L66.776 88.602a5.841 5.841 0 0 1-2.492.742v5.679s0 2.909.028 6.997a7.785 7.785 0 0 0 3.849-1.097l26.52-15.504c2.465-1.453 3.96-4.088 3.932-6.913V47.995c-.027-1.482-.525-2.882-1.355-4.089l-6.231 3.705z" fill="#3870b2"/><path d="M62.155 37.982c-.416.11-.804.302-1.19.52l-17.774 10.4 17.772-10.398a4.54 4.54 0 0 1 1.19-.52z" fill="#d6f0ff"/><path opacity=".1" d="M62.155 37.982c-.416.11-.804.302-1.19.52l-17.774 10.4 17.772-10.398a4.54 4.54 0 0 1 1.19-.52z" fill="#000"/><path d="M85.88 49.806a5.615 5.615 0 0 0-1.605-1.29l-17.968-10.07 17.967 10.07a5.6 5.6 0 0 1 1.606 1.29z" fill="#d6f0ff"/><path opacity=".1" d="M85.88 49.806a5.615 5.615 0 0 0-1.605-1.29l-17.968-10.07 17.967 10.07a5.6 5.6 0 0 1 1.606 1.29z" fill="#000"/><path d="M86.848 51.289a6.7 6.7 0 0 1 .22.684c-.055-.219-.14-.438-.222-.684z" fill="#d6f0ff"/><path opacity=".1" d="M86.848 51.289a6.7 6.7 0 0 1 .22.684c-.055-.219-.14-.438-.222-.684z" fill="#000"/><path d="M86.956 75.186a5.34 5.34 0 0 0 .249-1.646V53.098 73.54a5.34 5.34 0 0 1-.25 1.646z" fill="#d6f0ff"/><path opacity=".1" d="M86.956 75.186a5.34 5.34 0 0 0 .249-1.646V53.098 73.54a5.34 5.34 0 0 1-.25 1.646z" fill="#000"/>
    <g transform="translate(0,199.4493) scale(1,-1) translate(11.1226,42.2198) scale(0.213641) rotate(120,388.9454,254.7642)">
        <path d="M341.87,400.48c8.61,10.81,18.64,19.19,33.43,20.23-5.74-6.65-12.05-12.13-19.22-16.55-6.16-3.8-12.54-7.23-18.8-10.86-6.25-3.63-11.71-8.16-15.46-14.46-.97-1.64-1.69-3.43-2.15-5.58,10.19,12.88,23.03,20.86,39.52,22.35-3.03-1.35-6.05-2.71-9.08-4.06-17.96-8.02-28.91-21.73-33.37-40.82-2.84-12.14-4.79-24.37-4.35-36.88,.05-1.3,.34-2.6,.86-4.01,6.21,22.37,20.6,36.19,43,42.06-41.93-30.9-54.88-73.02-48.31-122.72,1.76,15.59,5.33,30.57,15.28,43.41-9.17-18.59-10.72-38.32-8.62-58.48,1.51-14.49,5.72-28.27,12.68-41.29-.14,12.44,.91,24.62,6.82,35.86-6.62-23.67-5.56-46.37,7.72-67.59,.69,8.51,.9,16.95,2.18,25.22,1.32,8.52,5.45,16,11.25,22.63-6.97-15.34-10.57-31.11-7.29-47.98,3.26-16.75,11.6-30.73,22.88-43.26-10.89,23.66-15.7,47.86-6.78,73.32-.1-.77-.2-1.53-.29-2.3-.11-.91-.21-1.82-.3-2.74-4.89-50.08,17.53-85.63,59.19-110.79,13.48-8.14,28.11-13.14,43.92-14.05,8.56-.49,16.75,1.06,23.96,6.07,11.33,7.89,12.11,20.5,.68,28.16-8.48,5.69-18.27,9.49-27.61,13.82-8.64,4.01-17.54,7.43-26.16,11.47-3.47,1.63-6.48,4.22-9.4,6.71,6.47-1.77,12.84-4.35,19.42-5.12,8.26-.97,16.69-.64,25.04-.5,2.06,.03,4.1,1.49,6.27,3.07-32.72,.62-56.45,15.2-71.45,43.82,8.45-11.28,19.27-19.75,31.96-25.83,12.6-6.05,25.6-10.4,39.8-8.51,.18,.49,.35,.98,.53,1.48-2.27,1.05-4.44,2.53-6.83,3.06-6.4,1.42-12.55,3.27-18.6,7.77,5.14-.8,9.16-3.68,14.68-1.69-1.99,1.22-3.3,2.22-4.78,2.89-9.31,4.2-18.82,7.98-27.91,12.59-6.17,3.14-11.77,7.42-17.62,11.19l.79,1.55c9.4-3.36,18.8-6.71,28.53-10.19-2.63,3.42-5.11,7.01-7.96,10.29-9.34,10.76-20.77,19.18-31.77,28.09-12.27,9.94-24.39,20.09-32.59,33.91-2.42,4.07-4.23,8.51-6.53,13.22,5.41-6.31,9.73-12.88,15.5-17.71,7.7-6.45,16.25-12.04,24.94-17.13,11.94-6.98,23.44-14.19,30.61-26.58,.78-1.35,2-2.45,3.79-3.41-.49,1.97-.8,4.01-1.5,5.9-4.07,11.08-11.94,19.32-20.78,26.61-10.55,8.7-21.6,16.8-32.17,25.49-6.17,5.08-11.22,11.23-13.92,18.97-.14,.41-.18,.86-.05,1.43,5.46-10.78,13.74-18.97,23.34-25.93,9.59-6.95,19.77-12.86,30.95-17.15-3.76,3.09-7.51,6.2-11.28,9.28-10.21,8.31-19.82,17.19-27.17,28.27-4.73,7.14-7.63,14.84-7.89,23.25,2.11-4.86,3.82-10.13,6.58-14.77,2.8-4.7,6.37-9.03,10.1-13.07,3.81-4.13,8.02-7.96,12.45-11.43,4.26-3.34,9.01-6.06,13.55-9.05,.32,.39,.63,.77,.95,1.16-1.12,1.31-2.13,2.74-3.39,3.91-17.65,16.45-26.26,37.29-29.81,60.68-1.79,11.8-3.42,23.67-8.21,34.77-.9,2.07-1.86,4.12-2.88,6.39,6-3.13,14.54-13.8,17.49-23.29,2.92-9.39,4.87-19.08,7.8-28.94,.82,2.86,1.99,5.68,2.41,8.6,1.95,13.67-1.59,26.57-6.64,38.98-4.59,11.26-10.2,22.1-15.22,33.19-5.46,12.07-6.06,24.36-1.01,37.56,3.5-26.99,21.24-44.67,37.71-63.19-11.45,24.12-26.39,46.88-28.11,74.61,8.39-10.77,12.55-23.5,16.71-36.23,.37,.07,.73,.13,1.1,.2-.47,4.75-.27,9.69-1.55,14.2-2.27,8.01-5.34,15.81-8.28,23.62-2.06,5.46-4.86,10.68-6.6,16.23-1.77,5.64-.82,11.29,2,16.36,6.02-5.76,11.89-11.38,18.13-17.36,.46,7.46,.81,14.46-4.39,20.34-1.07,1.21-2.06,2.48-3.16,3.66-2.8,2.99-3.42,6.42-2.13,10.22,1.2,3.55,2.48,7.08,3.19,10.91-1.29-1.97-2.67-3.88-3.87-5.9-18.69-31.58-31.79-65.37-39.99-101.11-5.73-24.97-9.25-50.2-8.81-75.86,.96-55.43,14.9-107.19,44.75-154.2,12.76-20.09,28.56-37.53,48.12-51.33,.28-.2,.56-.4,.4-1.28-.92,.56-1.86,1.07-2.74,1.67-24.99,16.91-44.11,39.15-58.89,65.23-16.42,28.96-26.84,60.1-32.39,92.84-3.91,23.12-4.66,46.47-3.03,69.86,3.28,47.03,15.11,91.8,34.9,134.61,16.59,35.89,42.32,63.47,74.95,85.1,1.89,1.25,3.73,2.56,5.33,4.51-2.43-.73-4.92-1.3-7.28-2.21-21.67-8.38-38.67-22.97-52.86-40.9-6.47-8.17-11.74-17.3-17.73-25.86-1.36-1.95-3.2-3.93-5.28-4.94-20.4-9.83-35.91-24.58-46.03-44.91-.2-.41-.34-.85-.47-1.29-.06-.21-.03-.44-.04-.67l.6-.93Z" fill="#000000"/>
    </g>
</g>
</svg>
